<svg xmlns="http://www.w3.org/2000/svg" xml:space="preserve" xmlns:xlink="http://www.w3.org/1999/xlink" style="max-width: 100%;height: auto;" width="1044" height="1350.24" viewBox="0 0 1044 1350.24">
<rect width="966.57" height="966.57" fill="#ffffff" x="38.5" y="38.5"  />
<g fill="#a7c080" transform="scale(43.5)"> <path transform="scale(0.086)" d="M36,279.8z M0,13.7v251.7c0,7.6,6.2,13.7,13.7,13.7h251.8c7.6,0,13.7-6.2,13.7-13.7V13.7C279.1,6.1,273,0,265.4,0H13.8  C6.2,0,0.1,6.1,0,13.7z M10.6,17.9c0-4.1,3.3-7.4,7.4-7.4h243.2c4.1,0,7.4,3.3,7.4,7.4v243.2c0,4.1-3.3,7.4-7.4,7.4H18  c-4.1,0-7.4-3.3-7.4-7.4V17.9z"/><path transform="scale(0.086)" d="M36,287.8  c-19.8,0-35.9,16.1-35.8,37l0,0c0,19.8,16.1,35.9,35.9,35.9h207.1c19.8,0,35.9-16.1,35.9-35.9l0,0c0-19.9-16.1-36-35.9-37H36"/><path transform="scale(0.09) translate(-208, -16)" id="circle-lf" fill="#FFFFFF" d="M214.7,325.7c0,15.8,12.7,28.5,28.5,28.5s28.5-12.7,28.5-28.5s-12.7-28.5-28.5-28.5  S214.7,310,214.7,325.7z"/><path transform="scale(0.12) translate(13.5, 220)" d="M8,21H4a1,1,0,0,1-1-1V16a1,1,0,0,0-2,0v4a3,3,0,0,0,3,3H8a1,1,0,0,0,0-2Zm14-6a1,1,0,0,0-1,1v4a1,1,0,0,1-1,1H16a1,1,0,0,0,0,2h4a3,3,0,0,0,3-3V16A1,1,0,0,0,22,15ZM20,1H16a1,1,0,0,0,0,2h4a1,1,0,0,1,1,1V8a1,1,0,0,0,2,0V4A3,3,0,0,0,20,1ZM2,9A1,1,0,0,0,3,8V4A1,1,0,0,1,4,3H8A1,1,0,0,0,8,1H4A3,3,0,0,0,1,4V8A1,1,0,0,0,2,9Zm8-4H6A1,1,0,0,0,5,6v4a1,1,0,0,0,1,1h4a1,1,0,0,0,1-1V6A1,1,0,0,0,10,5ZM9,9H7V7H9Zm5,2h4a1,1,0,0,0,1-1V6a1,1,0,0,0-1-1H14a1,1,0,0,0-1,1v4A1,1,0,0,0,14,11Zm1-4h2V9H15Zm-5,6H6a1,1,0,0,0-1,1v4a1,1,0,0,0,1,1h4a1,1,0,0,0,1-1V14A1,1,0,0,0,10,13ZM9,17H7V15H9Zm5-1a1,1,0,0,0,1-1,1,1,0,0,0,0-2H14a1,1,0,0,0-1,1v1A1,1,0,0,0,14,16Zm4-3a1,1,0,0,0-1,1v3a1,1,0,0,0,0,2h1a1,1,0,0,0,1-1V14A1,1,0,0,0,18,13Zm-4,4a1,1,0,1,0,1,1A1,1,0,0,0,14,17Z"></path></g>
<g  fill="#000000">
<g transform="translate(346.5,130.5) scale(4.635)"><rect width="6" height="6"/></g>
<g transform="translate(400.5,130.5) scale(4.635)"><rect width="6" height="6"/></g>
<g transform="translate(508.5,130.5) scale(4.635)"><rect width="6" height="6"/></g>
<g transform="translate(589.5,130.5) scale(4.635)"><rect width="6" height="6"/></g>
<g transform="translate(616.5,130.5) scale(4.635)"><rect width="6" height="6"/></g>
<g transform="translate(670.5,130.5) scale(4.635)"><rect width="6" height="6"/></g>
<g transform="translate(346.5,157.5) scale(4.635)"><rect width="6" height="6"/></g>
<g transform="translate(373.5,157.5) scale(4.635)"><rect width="6" height="6"/></g>
<g transform="translate(400.5,157.5) scale(4.635)"><rect width="6" height="6"/></g>
<g transform="translate(427.5,157.5) scale(4.635)"><rect width="6" height="6"/></g>
<g transform="translate(454.5,157.5) scale(4.635)"><rect width="6" height="6"/></g>
<g transform="translate(508.5,157.5) scale(4.635)"><rect width="6" height="6"/></g>
<g transform="translate(535.5,157.5) scale(4.635)"><rect width="6" height="6"/></g>
<g transform="translate(562.5,157.5) scale(4.635)"><rect width="6" height="6"/></g>
<g transform="translate(589.5,157.5) scale(4.635)"><rect width="6" height="6"/></g>
<g transform="translate(643.5,157.5) scale(4.635)"><rect width="6" height="6"/></g>
<g transform="translate(346.5,184.5) scale(4.635)"><rect width="6" height="6"/></g>
<g transform="translate(562.5,184.5) scale(4.635)"><rect width="6" height="6"/></g>
<g transform="translate(616.5,184.5) scale(4.635)"><rect width="6" height="6"/></g>
<g transform="translate(643.5,184.5) scale(4.635)"><rect width="6" height="6"/></g>
<g transform="translate(670.5,184.5) scale(4.635)"><rect width="6" height="6"/></g>
<g transform="translate(400.5,211.5) scale(4.635)"><rect width="6" height="6"/></g>
<g transform="translate(481.5,211.5) scale(4.635)"><rect width="6" height="6"/></g>
<g transform="translate(508.5,211.5) scale(4.635)"><rect width="6" height="6"/></g>
<g transform="translate(562.5,211.5) scale(4.635)"><rect width="6" height="6"/></g>
<g transform="translate(589.5,211.5) scale(4.635)"><rect width="6" height="6"/></g>
<g transform="translate(643.5,211.5) scale(4.635)"><rect width="6" height="6"/></g>
<g transform="translate(373.5,238.5) scale(4.635)"><rect width="6" height="6"/></g>
<g transform="translate(400.5,238.5) scale(4.635)"><rect width="6" height="6"/></g>
<g transform="translate(427.5,238.5) scale(4.635)"><rect width="6" height="6"/></g>
<g transform="translate(454.5,238.5) scale(4.635)"><rect width="6" height="6"/></g>
<g transform="translate(481.5,238.5) scale(4.635)"><rect width="6" height="6"/></g>
<g transform="translate(562.5,238.5) scale(4.635)"><rect width="6" height="6"/></g>
<g transform="translate(616.5,238.5) scale(4.635)"><rect width="6" height="6"/></g>
<g transform="translate(643.5,238.5) scale(4.635)"><rect width="6" height="6"/></g>
<g transform="translate(346.5,265.5) scale(4.635)"><rect width="6" height="6"/></g>
<g transform="translate(373.5,265.5) scale(4.635)"><rect width="6" height="6"/></g>
<g transform="translate(400.5,265.5) scale(4.635)"><rect width="6" height="6"/></g>
<g transform="translate(454.5,265.5) scale(4.635)"><rect width="6" height="6"/></g>
<g transform="translate(481.5,265.5) scale(4.635)"><rect width="6" height="6"/></g>
<g transform="translate(508.5,265.5) scale(4.635)"><rect width="6" height="6"/></g>
<g transform="translate(535.5,265.5) scale(4.635)"><rect width="6" height="6"/></g>
<g transform="translate(562.5,265.5) scale(4.635)"><rect width="6" height="6"/></g>
<g transform="translate(616.5,265.5) scale(4.635)"><rect width="6" height="6"/></g>
<g transform="translate(346.5,292.5) scale(4.635)"><rect width="6" height="6"/></g>
<g transform="translate(400.5,292.5) scale(4.635)"><rect width="6" height="6"/></g>
<g transform="translate(454.5,292.5) scale(4.635)"><rect width="6" height="6"/></g>
<g transform="translate(508.5,292.5) scale(4.635)"><rect width="6" height="6"/></g>
<g transform="translate(562.5,292.5) scale(4.635)"><rect width="6" height="6"/></g>
<g transform="translate(616.5,292.5) scale(4.635)"><rect width="6" height="6"/></g>
<g transform="translate(670.5,292.5) scale(4.635)"><rect width="6" height="6"/></g>
<g transform="translate(346.5,319.5) scale(4.635)"><rect width="6" height="6"/></g>
<g transform="translate(373.5,319.5) scale(4.635)"><rect width="6" height="6"/></g>
<g transform="translate(427.5,319.5) scale(4.635)"><rect width="6" height="6"/></g>
<g transform="translate(454.5,319.5) scale(4.635)"><rect width="6" height="6"/></g>
<g transform="translate(481.5,319.5) scale(4.635)"><rect width="6" height="6"/></g>
<g transform="translate(535.5,319.5) scale(4.635)"><rect width="6" height="6"/></g>
<g transform="translate(562.5,319.5) scale(4.635)"><rect width="6" height="6"/></g>
<g transform="translate(643.5,319.5) scale(4.635)"><rect width="6" height="6"/></g>
<g transform="translate(184.5,346.5) scale(4.635)"><rect width="6" height="6"/></g>
<g transform="translate(211.5,346.5) scale(4.635)"><rect width="6" height="6"/></g>
<g transform="translate(238.5,346.5) scale(4.635)"><rect width="6" height="6"/></g>
<g transform="translate(292.5,346.5) scale(4.635)"><rect width="6" height="6"/></g>
<g transform="translate(346.5,346.5) scale(4.635)"><rect width="6" height="6"/></g>
<g transform="translate(373.5,346.5) scale(4.635)"><rect width="6" height="6"/></g>
<g transform="translate(400.5,346.5) scale(4.635)"><rect width="6" height="6"/></g>
<g transform="translate(454.5,346.5) scale(4.635)"><rect width="6" height="6"/></g>
<g transform="translate(481.5,346.5) scale(4.635)"><rect width="6" height="6"/></g>
<g transform="translate(508.5,346.5) scale(4.635)"><rect width="6" height="6"/></g>
<g transform="translate(535.5,346.5) scale(4.635)"><rect width="6" height="6"/></g>
<g transform="translate(562.5,346.5) scale(4.635)"><rect width="6" height="6"/></g>
<g transform="translate(616.5,346.5) scale(4.635)"><rect width="6" height="6"/></g>
<g transform="translate(697.5,346.5) scale(4.635)"><rect width="6" height="6"/></g>
<g transform="translate(724.5,346.5) scale(4.635)"><rect width="6" height="6"/></g>
<g transform="translate(751.5,346.5) scale(4.635)"><rect width="6" height="6"/></g>
<g transform="translate(832.5,346.5) scale(4.635)"><rect width="6" height="6"/></g>
<g transform="translate(859.5,346.5) scale(4.635)"><rect width="6" height="6"/></g>
<g transform="translate(886.5,346.5) scale(4.635)"><rect width="6" height="6"/></g>
<g transform="translate(211.5,373.5) scale(4.635)"><rect width="6" height="6"/></g>
<g transform="translate(346.5,373.5) scale(4.635)"><rect width="6" height="6"/></g>
<g transform="translate(373.5,373.5) scale(4.635)"><rect width="6" height="6"/></g>
<g transform="translate(589.5,373.5) scale(4.635)"><rect width="6" height="6"/></g>
<g transform="translate(751.5,373.5) scale(4.635)"><rect width="6" height="6"/></g>
<g transform="translate(778.5,373.5) scale(4.635)"><rect width="6" height="6"/></g>
<g transform="translate(805.5,373.5) scale(4.635)"><rect width="6" height="6"/></g>
<g transform="translate(832.5,373.5) scale(4.635)"><rect width="6" height="6"/></g>
<g transform="translate(886.5,373.5) scale(4.635)"><rect width="6" height="6"/></g>
<g transform="translate(157.5,400.5) scale(4.635)"><rect width="6" height="6"/></g>
<g transform="translate(211.5,400.5) scale(4.635)"><rect width="6" height="6"/></g>
<g transform="translate(238.5,400.5) scale(4.635)"><rect width="6" height="6"/></g>
<g transform="translate(265.5,400.5) scale(4.635)"><rect width="6" height="6"/></g>
<g transform="translate(292.5,400.5) scale(4.635)"><rect width="6" height="6"/></g>
<g transform="translate(319.5,400.5) scale(4.635)"><rect width="6" height="6"/></g>
<g transform="translate(346.5,400.5) scale(4.635)"><rect width="6" height="6"/></g>
<g transform="translate(400.5,400.5) scale(4.635)"><rect width="6" height="6"/></g>
<g transform="translate(427.5,400.5) scale(4.635)"><rect width="6" height="6"/></g>
<g transform="translate(481.5,400.5) scale(4.635)"><rect width="6" height="6"/></g>
<g transform="translate(508.5,400.5) scale(4.635)"><rect width="6" height="6"/></g>
<g transform="translate(535.5,400.5) scale(4.635)"><rect width="6" height="6"/></g>
<g transform="translate(697.5,400.5) scale(4.635)"><rect width="6" height="6"/></g>
<g transform="translate(724.5,400.5) scale(4.635)"><rect width="6" height="6"/></g>
<g transform="translate(778.5,400.5) scale(4.635)"><rect width="6" height="6"/></g>
<g transform="translate(832.5,400.5) scale(4.635)"><rect width="6" height="6"/></g>
<g transform="translate(319.5,427.5) scale(4.635)"><rect width="6" height="6"/></g>
<g transform="translate(373.5,427.5) scale(4.635)"><rect width="6" height="6"/></g>
<g transform="translate(400.5,427.5) scale(4.635)"><rect width="6" height="6"/></g>
<g transform="translate(454.5,427.5) scale(4.635)"><rect width="6" height="6"/></g>
<g transform="translate(589.5,427.5) scale(4.635)"><rect width="6" height="6"/></g>
<g transform="translate(697.5,427.5) scale(4.635)"><rect width="6" height="6"/></g>
<g transform="translate(724.5,427.5) scale(4.635)"><rect width="6" height="6"/></g>
<g transform="translate(805.5,427.5) scale(4.635)"><rect width="6" height="6"/></g>
<g transform="translate(859.5,427.5) scale(4.635)"><rect width="6" height="6"/></g>
<g transform="translate(157.5,454.5) scale(4.635)"><rect width="6" height="6"/></g>
<g transform="translate(211.5,454.5) scale(4.635)"><rect width="6" height="6"/></g>
<g transform="translate(238.5,454.5) scale(4.635)"><rect width="6" height="6"/></g>
<g transform="translate(265.5,454.5) scale(4.635)"><rect width="6" height="6"/></g>
<g transform="translate(292.5,454.5) scale(4.635)"><rect width="6" height="6"/></g>
<g transform="translate(319.5,454.5) scale(4.635)"><rect width="6" height="6"/></g>
<g transform="translate(346.5,454.5) scale(4.635)"><rect width="6" height="6"/></g>
<g transform="translate(481.5,454.5) scale(4.635)"><rect width="6" height="6"/></g>
<g transform="translate(508.5,454.5) scale(4.635)"><rect width="6" height="6"/></g>
<g transform="translate(535.5,454.5) scale(4.635)"><rect width="6" height="6"/></g>
<g transform="translate(562.5,454.5) scale(4.635)"><rect width="6" height="6"/></g>
<g transform="translate(643.5,454.5) scale(4.635)"><rect width="6" height="6"/></g>
<g transform="translate(670.5,454.5) scale(4.635)"><rect width="6" height="6"/></g>
<g transform="translate(697.5,454.5) scale(4.635)"><rect width="6" height="6"/></g>
<g transform="translate(751.5,454.5) scale(4.635)"><rect width="6" height="6"/></g>
<g transform="translate(832.5,454.5) scale(4.635)"><rect width="6" height="6"/></g>
<g transform="translate(859.5,454.5) scale(4.635)"><rect width="6" height="6"/></g>
<g transform="translate(886.5,454.5) scale(4.635)"><rect width="6" height="6"/></g>
<g transform="translate(130.5,481.5) scale(4.635)"><rect width="6" height="6"/></g>
<g transform="translate(184.5,481.5) scale(4.635)"><rect width="6" height="6"/></g>
<g transform="translate(211.5,481.5) scale(4.635)"><rect width="6" height="6"/></g>
<g transform="translate(238.5,481.5) scale(4.635)"><rect width="6" height="6"/></g>
<g transform="translate(265.5,481.5) scale(4.635)"><rect width="6" height="6"/></g>
<g transform="translate(319.5,481.5) scale(4.635)"><rect width="6" height="6"/></g>
<g transform="translate(373.5,481.5) scale(4.635)"><rect width="6" height="6"/></g>
<g transform="translate(400.5,481.5) scale(4.635)"><rect width="6" height="6"/></g>
<g transform="translate(454.5,481.5) scale(4.635)"><rect width="6" height="6"/></g>
<g transform="translate(481.5,481.5) scale(4.635)"><rect width="6" height="6"/></g>
<g transform="translate(535.5,481.5) scale(4.635)"><rect width="6" height="6"/></g>
<g transform="translate(589.5,481.5) scale(4.635)"><rect width="6" height="6"/></g>
<g transform="translate(616.5,481.5) scale(4.635)"><rect width="6" height="6"/></g>
<g transform="translate(643.5,481.5) scale(4.635)"><rect width="6" height="6"/></g>
<g transform="translate(670.5,481.5) scale(4.635)"><rect width="6" height="6"/></g>
<g transform="translate(697.5,481.5) scale(4.635)"><rect width="6" height="6"/></g>
<g transform="translate(724.5,481.5) scale(4.635)"><rect width="6" height="6"/></g>
<g transform="translate(778.5,481.5) scale(4.635)"><rect width="6" height="6"/></g>
<g transform="translate(805.5,481.5) scale(4.635)"><rect width="6" height="6"/></g>
<g transform="translate(859.5,481.5) scale(4.635)"><rect width="6" height="6"/></g>
<g transform="translate(886.5,481.5) scale(4.635)"><rect width="6" height="6"/></g>
<g transform="translate(130.5,508.5) scale(4.635)"><rect width="6" height="6"/></g>
<g transform="translate(157.5,508.5) scale(4.635)"><rect width="6" height="6"/></g>
<g transform="translate(292.5,508.5) scale(4.635)"><rect width="6" height="6"/></g>
<g transform="translate(346.5,508.5) scale(4.635)"><rect width="6" height="6"/></g>
<g transform="translate(454.5,508.5) scale(4.635)"><rect width="6" height="6"/></g>
<g transform="translate(481.5,508.5) scale(4.635)"><rect width="6" height="6"/></g>
<g transform="translate(616.5,508.5) scale(4.635)"><rect width="6" height="6"/></g>
<g transform="translate(670.5,508.5) scale(4.635)"><rect width="6" height="6"/></g>
<g transform="translate(697.5,508.5) scale(4.635)"><rect width="6" height="6"/></g>
<g transform="translate(724.5,508.5) scale(4.635)"><rect width="6" height="6"/></g>
<g transform="translate(751.5,508.5) scale(4.635)"><rect width="6" height="6"/></g>
<g transform="translate(130.5,535.5) scale(4.635)"><rect width="6" height="6"/></g>
<g transform="translate(184.5,535.5) scale(4.635)"><rect width="6" height="6"/></g>
<g transform="translate(265.5,535.5) scale(4.635)"><rect width="6" height="6"/></g>
<g transform="translate(319.5,535.5) scale(4.635)"><rect width="6" height="6"/></g>
<g transform="translate(346.5,535.5) scale(4.635)"><rect width="6" height="6"/></g>
<g transform="translate(373.5,535.5) scale(4.635)"><rect width="6" height="6"/></g>
<g transform="translate(400.5,535.5) scale(4.635)"><rect width="6" height="6"/></g>
<g transform="translate(454.5,535.5) scale(4.635)"><rect width="6" height="6"/></g>
<g transform="translate(508.5,535.5) scale(4.635)"><rect width="6" height="6"/></g>
<g transform="translate(535.5,535.5) scale(4.635)"><rect width="6" height="6"/></g>
<g transform="translate(589.5,535.5) scale(4.635)"><rect width="6" height="6"/></g>
<g transform="translate(697.5,535.5) scale(4.635)"><rect width="6" height="6"/></g>
<g transform="translate(724.5,535.5) scale(4.635)"><rect width="6" height="6"/></g>
<g transform="translate(778.5,535.5) scale(4.635)"><rect width="6" height="6"/></g>
<g transform="translate(805.5,535.5) scale(4.635)"><rect width="6" height="6"/></g>
<g transform="translate(130.5,562.5) scale(4.635)"><rect width="6" height="6"/></g>
<g transform="translate(157.5,562.5) scale(4.635)"><rect width="6" height="6"/></g>
<g transform="translate(184.5,562.5) scale(4.635)"><rect width="6" height="6"/></g>
<g transform="translate(238.5,562.5) scale(4.635)"><rect width="6" height="6"/></g>
<g transform="translate(292.5,562.5) scale(4.635)"><rect width="6" height="6"/></g>
<g transform="translate(319.5,562.5) scale(4.635)"><rect width="6" height="6"/></g>
<g transform="translate(427.5,562.5) scale(4.635)"><rect width="6" height="6"/></g>
<g transform="translate(508.5,562.5) scale(4.635)"><rect width="6" height="6"/></g>
<g transform="translate(589.5,562.5) scale(4.635)"><rect width="6" height="6"/></g>
<g transform="translate(616.5,562.5) scale(4.635)"><rect width="6" height="6"/></g>
<g transform="translate(751.5,562.5) scale(4.635)"><rect width="6" height="6"/></g>
<g transform="translate(805.5,562.5) scale(4.635)"><rect width="6" height="6"/></g>
<g transform="translate(832.5,562.5) scale(4.635)"><rect width="6" height="6"/></g>
<g transform="translate(859.5,562.5) scale(4.635)"><rect width="6" height="6"/></g>
<g transform="translate(886.5,562.5) scale(4.635)"><rect width="6" height="6"/></g>
<g transform="translate(130.5,589.5) scale(4.635)"><rect width="6" height="6"/></g>
<g transform="translate(211.5,589.5) scale(4.635)"><rect width="6" height="6"/></g>
<g transform="translate(238.5,589.5) scale(4.635)"><rect width="6" height="6"/></g>
<g transform="translate(265.5,589.5) scale(4.635)"><rect width="6" height="6"/></g>
<g transform="translate(346.5,589.5) scale(4.635)"><rect width="6" height="6"/></g>
<g transform="translate(427.5,589.5) scale(4.635)"><rect width="6" height="6"/></g>
<g transform="translate(535.5,589.5) scale(4.635)"><rect width="6" height="6"/></g>
<g transform="translate(616.5,589.5) scale(4.635)"><rect width="6" height="6"/></g>
<g transform="translate(670.5,589.5) scale(4.635)"><rect width="6" height="6"/></g>
<g transform="translate(778.5,589.5) scale(4.635)"><rect width="6" height="6"/></g>
<g transform="translate(832.5,589.5) scale(4.635)"><rect width="6" height="6"/></g>
<g transform="translate(859.5,589.5) scale(4.635)"><rect width="6" height="6"/></g>
<g transform="translate(886.5,589.5) scale(4.635)"><rect width="6" height="6"/></g>
<g transform="translate(130.5,616.5) scale(4.635)"><rect width="6" height="6"/></g>
<g transform="translate(211.5,616.5) scale(4.635)"><rect width="6" height="6"/></g>
<g transform="translate(238.5,616.5) scale(4.635)"><rect width="6" height="6"/></g>
<g transform="translate(265.5,616.5) scale(4.635)"><rect width="6" height="6"/></g>
<g transform="translate(292.5,616.5) scale(4.635)"><rect width="6" height="6"/></g>
<g transform="translate(346.5,616.5) scale(4.635)"><rect width="6" height="6"/></g>
<g transform="translate(373.5,616.5) scale(4.635)"><rect width="6" height="6"/></g>
<g transform="translate(427.5,616.5) scale(4.635)"><rect width="6" height="6"/></g>
<g transform="translate(481.5,616.5) scale(4.635)"><rect width="6" height="6"/></g>
<g transform="translate(535.5,616.5) scale(4.635)"><rect width="6" height="6"/></g>
<g transform="translate(616.5,616.5) scale(4.635)"><rect width="6" height="6"/></g>
<g transform="translate(724.5,616.5) scale(4.635)"><rect width="6" height="6"/></g>
<g transform="translate(751.5,616.5) scale(4.635)"><rect width="6" height="6"/></g>
<g transform="translate(805.5,616.5) scale(4.635)"><rect width="6" height="6"/></g>
<g transform="translate(832.5,616.5) scale(4.635)"><rect width="6" height="6"/></g>
<g transform="translate(130.5,643.5) scale(4.635)"><rect width="6" height="6"/></g>
<g transform="translate(184.5,643.5) scale(4.635)"><rect width="6" height="6"/></g>
<g transform="translate(238.5,643.5) scale(4.635)"><rect width="6" height="6"/></g>
<g transform="translate(346.5,643.5) scale(4.635)"><rect width="6" height="6"/></g>
<g transform="translate(400.5,643.5) scale(4.635)"><rect width="6" height="6"/></g>
<g transform="translate(427.5,643.5) scale(4.635)"><rect width="6" height="6"/></g>
<g transform="translate(481.5,643.5) scale(4.635)"><rect width="6" height="6"/></g>
<g transform="translate(508.5,643.5) scale(4.635)"><rect width="6" height="6"/></g>
<g transform="translate(562.5,643.5) scale(4.635)"><rect width="6" height="6"/></g>
<g transform="translate(643.5,643.5) scale(4.635)"><rect width="6" height="6"/></g>
<g transform="translate(670.5,643.5) scale(4.635)"><rect width="6" height="6"/></g>
<g transform="translate(724.5,643.5) scale(4.635)"><rect width="6" height="6"/></g>
<g transform="translate(751.5,643.5) scale(4.635)"><rect width="6" height="6"/></g>
<g transform="translate(778.5,643.5) scale(4.635)"><rect width="6" height="6"/></g>
<g transform="translate(859.5,643.5) scale(4.635)"><rect width="6" height="6"/></g>
<g transform="translate(886.5,643.5) scale(4.635)"><rect width="6" height="6"/></g>
<g transform="translate(130.5,670.5) scale(4.635)"><rect width="6" height="6"/></g>
<g transform="translate(211.5,670.5) scale(4.635)"><rect width="6" height="6"/></g>
<g transform="translate(265.5,670.5) scale(4.635)"><rect width="6" height="6"/></g>
<g transform="translate(292.5,670.5) scale(4.635)"><rect width="6" height="6"/></g>
<g transform="translate(346.5,670.5) scale(4.635)"><rect width="6" height="6"/></g>
<g transform="translate(454.5,670.5) scale(4.635)"><rect width="6" height="6"/></g>
<g transform="translate(508.5,670.5) scale(4.635)"><rect width="6" height="6"/></g>
<g transform="translate(562.5,670.5) scale(4.635)"><rect width="6" height="6"/></g>
<g transform="translate(670.5,670.5) scale(4.635)"><rect width="6" height="6"/></g>
<g transform="translate(697.5,670.5) scale(4.635)"><rect width="6" height="6"/></g>
<g transform="translate(724.5,670.5) scale(4.635)"><rect width="6" height="6"/></g>
<g transform="translate(751.5,670.5) scale(4.635)"><rect width="6" height="6"/></g>
<g transform="translate(778.5,670.5) scale(4.635)"><rect width="6" height="6"/></g>
<g transform="translate(832.5,670.5) scale(4.635)"><rect width="6" height="6"/></g>
<g transform="translate(346.5,697.5) scale(4.635)"><rect width="6" height="6"/></g>
<g transform="translate(400.5,697.5) scale(4.635)"><rect width="6" height="6"/></g>
<g transform="translate(427.5,697.5) scale(4.635)"><rect width="6" height="6"/></g>
<g transform="translate(454.5,697.5) scale(4.635)"><rect width="6" height="6"/></g>
<g transform="translate(481.5,697.5) scale(4.635)"><rect width="6" height="6"/></g>
<g transform="translate(508.5,697.5) scale(4.635)"><rect width="6" height="6"/></g>
<g transform="translate(535.5,697.5) scale(4.635)"><rect width="6" height="6"/></g>
<g transform="translate(616.5,697.5) scale(4.635)"><rect width="6" height="6"/></g>
<g transform="translate(643.5,697.5) scale(4.635)"><rect width="6" height="6"/></g>
<g transform="translate(670.5,697.5) scale(4.635)"><rect width="6" height="6"/></g>
<g transform="translate(778.5,697.5) scale(4.635)"><rect width="6" height="6"/></g>
<g transform="translate(805.5,697.5) scale(4.635)"><rect width="6" height="6"/></g>
<g transform="translate(859.5,697.5) scale(4.635)"><rect width="6" height="6"/></g>
<g transform="translate(886.5,697.5) scale(4.635)"><rect width="6" height="6"/></g>
<g transform="translate(427.5,724.5) scale(4.635)"><rect width="6" height="6"/></g>
<g transform="translate(481.5,724.5) scale(4.635)"><rect width="6" height="6"/></g>
<g transform="translate(535.5,724.5) scale(4.635)"><rect width="6" height="6"/></g>
<g transform="translate(616.5,724.5) scale(4.635)"><rect width="6" height="6"/></g>
<g transform="translate(643.5,724.5) scale(4.635)"><rect width="6" height="6"/></g>
<g transform="translate(670.5,724.5) scale(4.635)"><rect width="6" height="6"/></g>
<g transform="translate(724.5,724.5) scale(4.635)"><rect width="6" height="6"/></g>
<g transform="translate(778.5,724.5) scale(4.635)"><rect width="6" height="6"/></g>
<g transform="translate(400.5,751.5) scale(4.635)"><rect width="6" height="6"/></g>
<g transform="translate(481.5,751.5) scale(4.635)"><rect width="6" height="6"/></g>
<g transform="translate(535.5,751.5) scale(4.635)"><rect width="6" height="6"/></g>
<g transform="translate(589.5,751.5) scale(4.635)"><rect width="6" height="6"/></g>
<g transform="translate(616.5,751.5) scale(4.635)"><rect width="6" height="6"/></g>
<g transform="translate(643.5,751.5) scale(4.635)"><rect width="6" height="6"/></g>
<g transform="translate(670.5,751.5) scale(4.635)"><rect width="6" height="6"/></g>
<g transform="translate(778.5,751.5) scale(4.635)"><rect width="6" height="6"/></g>
<g transform="translate(805.5,751.5) scale(4.635)"><rect width="6" height="6"/></g>
<g transform="translate(859.5,751.5) scale(4.635)"><rect width="6" height="6"/></g>
<g transform="translate(346.5,778.5) scale(4.635)"><rect width="6" height="6"/></g>
<g transform="translate(373.5,778.5) scale(4.635)"><rect width="6" height="6"/></g>
<g transform="translate(535.5,778.5) scale(4.635)"><rect width="6" height="6"/></g>
<g transform="translate(589.5,778.5) scale(4.635)"><rect width="6" height="6"/></g>
<g transform="translate(670.5,778.5) scale(4.635)"><rect width="6" height="6"/></g>
<g transform="translate(697.5,778.5) scale(4.635)"><rect width="6" height="6"/></g>
<g transform="translate(724.5,778.5) scale(4.635)"><rect width="6" height="6"/></g>
<g transform="translate(751.5,778.5) scale(4.635)"><rect width="6" height="6"/></g>
<g transform="translate(778.5,778.5) scale(4.635)"><rect width="6" height="6"/></g>
<g transform="translate(805.5,778.5) scale(4.635)"><rect width="6" height="6"/></g>
<g transform="translate(832.5,778.5) scale(4.635)"><rect width="6" height="6"/></g>
<g transform="translate(886.5,778.5) scale(4.635)"><rect width="6" height="6"/></g>
<g transform="translate(346.5,805.5) scale(4.635)"><rect width="6" height="6"/></g>
<g transform="translate(373.5,805.5) scale(4.635)"><rect width="6" height="6"/></g>
<g transform="translate(535.5,805.5) scale(4.635)"><rect width="6" height="6"/></g>
<g transform="translate(643.5,805.5) scale(4.635)"><rect width="6" height="6"/></g>
<g transform="translate(670.5,805.5) scale(4.635)"><rect width="6" height="6"/></g>
<g transform="translate(697.5,805.5) scale(4.635)"><rect width="6" height="6"/></g>
<g transform="translate(751.5,805.5) scale(4.635)"><rect width="6" height="6"/></g>
<g transform="translate(805.5,805.5) scale(4.635)"><rect width="6" height="6"/></g>
<g transform="translate(832.5,805.5) scale(4.635)"><rect width="6" height="6"/></g>
<g transform="translate(346.5,832.5) scale(4.635)"><rect width="6" height="6"/></g>
<g transform="translate(373.5,832.5) scale(4.635)"><rect width="6" height="6"/></g>
<g transform="translate(454.5,832.5) scale(4.635)"><rect width="6" height="6"/></g>
<g transform="translate(508.5,832.5) scale(4.635)"><rect width="6" height="6"/></g>
<g transform="translate(535.5,832.5) scale(4.635)"><rect width="6" height="6"/></g>
<g transform="translate(562.5,832.5) scale(4.635)"><rect width="6" height="6"/></g>
<g transform="translate(616.5,832.5) scale(4.635)"><rect width="6" height="6"/></g>
<g transform="translate(643.5,832.5) scale(4.635)"><rect width="6" height="6"/></g>
<g transform="translate(670.5,832.5) scale(4.635)"><rect width="6" height="6"/></g>
<g transform="translate(697.5,832.5) scale(4.635)"><rect width="6" height="6"/></g>
<g transform="translate(724.5,832.5) scale(4.635)"><rect width="6" height="6"/></g>
<g transform="translate(751.5,832.5) scale(4.635)"><rect width="6" height="6"/></g>
<g transform="translate(778.5,832.5) scale(4.635)"><rect width="6" height="6"/></g>
<g transform="translate(805.5,832.5) scale(4.635)"><rect width="6" height="6"/></g>
<g transform="translate(832.5,832.5) scale(4.635)"><rect width="6" height="6"/></g>
<g transform="translate(859.5,832.5) scale(4.635)"><rect width="6" height="6"/></g>
<g transform="translate(400.5,859.5) scale(4.635)"><rect width="6" height="6"/></g>
<g transform="translate(427.5,859.5) scale(4.635)"><rect width="6" height="6"/></g>
<g transform="translate(481.5,859.5) scale(4.635)"><rect width="6" height="6"/></g>
<g transform="translate(508.5,859.5) scale(4.635)"><rect width="6" height="6"/></g>
<g transform="translate(562.5,859.5) scale(4.635)"><rect width="6" height="6"/></g>
<g transform="translate(643.5,859.5) scale(4.635)"><rect width="6" height="6"/></g>
<g transform="translate(697.5,859.5) scale(4.635)"><rect width="6" height="6"/></g>
<g transform="translate(778.5,859.5) scale(4.635)"><rect width="6" height="6"/></g>
<g transform="translate(805.5,859.5) scale(4.635)"><rect width="6" height="6"/></g>
<g transform="translate(859.5,859.5) scale(4.635)"><rect width="6" height="6"/></g>
<g transform="translate(400.5,886.5) scale(4.635)"><rect width="6" height="6"/></g>
<g transform="translate(427.5,886.5) scale(4.635)"><rect width="6" height="6"/></g>
<g transform="translate(562.5,886.5) scale(4.635)"><rect width="6" height="6"/></g>
<g transform="translate(589.5,886.5) scale(4.635)"><rect width="6" height="6"/></g>
<g transform="translate(643.5,886.5) scale(4.635)"><rect width="6" height="6"/></g>
<g transform="translate(697.5,886.5) scale(4.635)"><rect width="6" height="6"/></g>
<g transform="translate(778.5,886.5) scale(4.635)"><rect width="6" height="6"/></g>
<g transform="translate(805.5,886.5) scale(4.635)"><rect width="6" height="6"/></g>
<g transform="translate(832.5,886.5) scale(4.635)"><rect width="6" height="6"/></g>
</g><g ><g transform="translate(130.5,130.5)"  fill="#000000"><g transform="scale(13.5)"><path d="M0,0v14h14V0H0z M12,12H2V2h10V12z"/></g></g>
<g transform="translate(724.5,130.5)"  fill="#000000"><g transform="scale(13.5)"><path d="M0,0v14h14V0H0z M12,12H2V2h10V12z"/></g></g>
<g transform="translate(130.5,724.5)"  fill="#000000"><g transform="scale(13.5)"><path d="M0,0v14h14V0H0z M12,12H2V2h10V12z"/></g></g>
<g transform="translate(184.5,184.5)"  fill="#000000"><g transform="scale(13.5)"><rect width="6" height="6"/></g></g>
<g transform="translate(778.5,184.5)"  fill="#000000"><g transform="scale(13.5)"><rect width="6" height="6"/></g></g>
<g transform="translate(184.5,778.5)"  fill="#000000"><g transform="scale(13.5)"><rect width="6" height="6"/></g></g></g>
<text fill="#FFFFFF" font-family="Arial, Helvetica, sans-serif" font-size="70.99702970297px" text-anchor="middle" x="626.75" y="161.20154988576" transform="translate(0,1074.45)">https://vratton.dev</text></svg>
